<?xml version="1.0" standalone="no"?>
<!DOCTYPE svg PUBLIC "-//W3C//DTD SVG 20010904//EN"
 "http://www.w3.org/TR/2001/REC-SVG-20010904/DTD/svg10.dtd">
<svg version="1.0" xmlns="http://www.w3.org/2000/svg"
 width="275.000000pt" height="183.000000pt" viewBox="0 0 275.000000 183.000000"
 preserveAspectRatio="xMidYMid meet">
<metadata>
Created by potrace 1.16, written by Peter Selinger 2001-2019
</metadata>
<g transform="translate(0.000000,183.000000) scale(0.100000,-0.100000)"
fill="#000000" stroke="none">
<path d="M570 1221 c0 -40 0 -40 -42 -43 -35 -2 -43 -7 -43 -23 0 -17 7 -20
43 -20 l42 0 0 -42 c0 -36 3 -43 20 -43 17 0 20 7 20 40 l0 40 45 0 c41 0 45
2 45 25 0 23 -4 25 -45 25 l-45 0 0 40 c0 33 -3 40 -20 40 -17 0 -20 -7 -20
-39z"/>
<path d="M90 915 l0 -266 260 1 260 1 0 160 c0 152 -1 159 -20 159 -19 0 -20
-7 -20 -135 l0 -135 -220 0 -220 0 0 218 0 217 137 0 c131 0 138 1 138 20 0
19 -8 20 -157 23 l-158 3 0 -266z"/>
<path d="M780 913 l0 -263 940 0 940 0 -2 260 -3 260 -938 3 -937 2 0 -262z
m315 123 c98 -41 98 -201 0 -242 -47 -19 -84 -18 -122 6 -46 27 -65 62 -65
116 0 55 22 91 73 116 41 22 69 22 114 4z m224 -77 l71 -92 0 92 c0 90 1 92
23 89 22 -3 22 -6 22 -133 0 -123 -1 -130 -20 -132 -15 -2 -38 21 -87 88 l-68
91 0 -91 c0 -90 0 -91 -25 -91 l-25 0 0 135 c0 127 1 135 19 135 13 0 44 -32
90 -91z m339 69 c3 -16 -5 -18 -57 -18 l-61 0 0 -34 c0 -34 1 -35 42 -38 31
-2 44 -8 46 -20 3 -15 -4 -18 -42 -18 l-46 0 0 -40 0 -40 61 0 c52 0 60 -2 57
-17 -3 -15 -16 -18 -86 -21 l-82 -3 0 136 0 136 82 -3 c70 -3 83 -6 86 -20z
m208 -12 c26 -30 30 -56 13 -88 -12 -23 -66 -48 -104 -48 -23 0 -25 -3 -25
-50 0 -43 -3 -50 -20 -50 -19 0 -20 7 -20 136 l0 136 66 -4 c58 -4 70 -8 90
-32z m104 -80 l0 -115 52 -3 c41 -2 54 -7 56 -20 3 -16 -6 -18 -72 -18 l-76 0
0 135 c0 128 1 135 20 135 19 0 20 -7 20 -114z m170 27 c0 -109 12 -137 60
-141 59 -4 64 6 70 120 4 88 8 103 23 106 15 3 17 -7 17 -103 0 -99 -2 -108
-24 -130 -47 -47 -121 -44 -160 8 -17 22 -22 46 -25 113 -3 93 1 114 24 114
12 0 15 -16 15 -87z m354 77 c14 -5 26 -16 26 -25 0 -18 -14 -19 -42 -4 -43
23 -92 -29 -55 -58 6 -6 29 -16 50 -22 20 -7 42 -21 47 -31 28 -53 -11 -120
-70 -120 -43 0 -91 26 -84 45 7 18 12 18 44 0 34 -19 47 -18 70 5 28 28 16 48
-46 75 -40 18 -55 30 -60 50 -16 66 49 112 120 85z"/>
<path d="M980 978 c-13 -15 -20 -35 -20 -63 0 -55 28 -85 79 -85 51 0 76 28
76 85 0 57 -25 85 -76 85 -26 0 -45 -7 -59 -22z"/>
<path d="M264 1024 c3 -9 6 -18 6 -20 0 -2 16 -4 35 -4 l35 0 0 -84 0 -85 -37
-3 c-27 -2 -39 -8 -41 -20 -3 -16 6 -18 92 -18 89 0 96 1 96 20 0 16 -7 20
-35 20 l-35 0 0 105 0 105 -61 0 c-52 0 -60 -2 -55 -16z"/>
</g>
</svg>
